<mxfile host="app.diagrams.net" modified="2024-03-18T10:24:17.412Z" agent="Mozilla/5.0 (Windows NT 10.0; Win64; x64) AppleWebKit/537.36 (KHTML, like Gecko) Chrome/122.0.0.0 Safari/537.36" version="24.0.6" etag="oKXEiQPotRMJtab9k_CL" type="github">
  <diagram name="Страница — 1" id="svo4xueaaqVHP-x0B6R1">
    <mxGraphModel>
      <root>
        <mxCell id="0" />
        <mxCell id="1" parent="0" />
      </root>
    </mxGraphModel>
  </diagram>
</mxfile>
